<svg width="166" height="50" viewBox="0 0 166 50" fill="none" xmlns="http://www.w3.org/2000/svg">
<path fill-rule="evenodd" clip-rule="evenodd" d="M0 14.1V14.223L27.95 27.353L56 14.179V14.146L27.95 0.970001L0 14.1ZM10.077 14.162L27.95 5.765L45.827 14.162L27.95 22.558L10.077 14.162ZM27.95 32.453L0 19.52V24.304L27.95 37.268L56 24.259V19.475L27.95 32.453ZM27.95 42.156L0 29.22V34.003L27.95 46.97L56 33.96V29.176L27.95 42.156Z" fill="white"/>
<mask id="mask0_2_22" style="mask-type:luminance" maskUnits="userSpaceOnUse" x="65" y="1" width="94" height="49">
<path d="M65 1H158.96V49.29H65.001L65 1Z" fill="white"/>
</mask>
<g mask="url(#mask0_2_22)">
<path fill-rule="evenodd" clip-rule="evenodd" d="M152.546 25.122C152.562 23.0568 151.789 21.0632 150.385 19.549C149.724 18.8408 148.929 18.272 148.045 17.876C147.149 17.4741 146.177 17.2691 145.195 17.275C144.185 17.275 143.234 17.475 142.343 17.876C141.459 18.2719 140.664 18.8408 140.003 19.549C138.599 21.0637 137.826 23.0576 137.843 25.123C137.826 27.1881 138.599 29.1815 140.003 30.696C140.664 31.4039 141.459 31.9724 142.343 32.368C143.239 32.7704 144.212 32.9757 145.194 32.97C146.204 32.97 147.154 32.77 148.046 32.368C148.929 31.9722 149.725 31.4037 150.385 30.696C151.789 29.1814 152.563 27.1874 152.546 25.122ZM158.961 25.122C158.961 27.054 158.604 28.845 157.891 30.495C157.206 32.1036 156.207 33.5588 154.951 34.775C153.704 35.98 152.241 36.931 150.563 37.629C148.885 38.328 147.095 38.677 145.194 38.677C143.294 38.677 141.511 38.328 139.848 37.629C138.223 36.9559 136.742 35.9799 135.482 34.753C134.229 33.526 133.23 32.0642 132.542 30.451C131.829 28.801 131.472 27.025 131.472 25.122C131.472 23.249 131.836 21.488 132.564 19.838C133.269 18.2218 134.274 16.7541 135.526 15.513C136.781 14.2744 138.264 13.2903 139.893 12.615C141.572 11.9134 143.375 11.5569 145.194 11.567C147.095 11.567 148.884 11.917 150.563 12.615C152.241 13.313 153.703 14.265 154.951 15.469C156.199 16.673 157.179 18.107 157.891 19.771C158.604 21.436 158.961 23.22 158.961 25.122ZM129.244 37.875C128.694 38.1281 128.119 38.3225 127.529 38.455C126.891 38.603 126.229 38.677 125.547 38.677C124.62 38.6803 123.698 38.5527 122.807 38.298C121.962 38.062 121.178 37.6435 120.512 37.072C119.859 36.507 119.339 35.772 118.952 34.865C118.567 33.958 118.374 32.865 118.374 31.588V0.999001H124.923V30.473C124.923 31.543 125.138 32.279 125.569 32.68C125.999 33.081 126.512 33.282 127.106 33.282C127.848 33.282 128.561 33.059 129.244 32.613V37.875ZM115.478 12.19L103.894 42.824C103.033 45.113 101.904 46.763 100.508 47.774C99.112 48.784 97.448 49.289 95.518 49.289C95.221 49.289 94.895 49.267 94.538 49.223C94.192 49.1804 93.8495 49.1132 93.513 49.022L91.375 43.047C91.8756 43.2831 92.3981 43.4697 92.935 43.604C93.469 43.738 93.974 43.805 94.449 43.805C95.459 43.805 96.379 43.575 97.211 43.114C98.043 42.654 98.681 41.799 99.127 40.55L100.018 37.964L90.083 12.191H97.078L103.003 28.779L108.573 12.191L115.478 12.19ZM88.524 8.312H71.772V16.606H88.301V22.224H71.771V38.008H65.001V2.382H88.525L88.524 8.312Z" fill="white"/>
</g>
</svg>


